<svg width="324" height="150" viewBox="0 0 324 150" fill="none" xmlns="http://www.w3.org/2000/svg">
<mask id="path-1-outside-1_2040_217" maskUnits="userSpaceOnUse" x="5.09575" y="10.876" width="77.1472" height="102.779" fill="black">
<rect fill="white" x="5.09575" y="10.876" width="77.1472" height="102.779"/>
<path d="M31.5079 102.922L25.6362 100.639L30.1664 88.9886C19.4638 84.5049 15.8288 79.2288 19.2355 70.4679C20.2503 67.8583 21.2133 65.6577 22.4197 63.659L35.7475 68.8416L35.1314 70.426C33.718 74.0609 33.5886 76.0491 37.503 77.5713C41.6039 79.1659 42.7533 77.0378 43.8043 74.335C44.8191 71.7253 44.3997 70.5966 42.168 68.3339C38.1343 64.0831 32.9564 60.5675 29.9066 56.27C26.9137 52.102 27.5297 48.5862 30.6465 40.5709C34.7418 30.0391 39.4898 27.4863 52.3464 31.9492L56.2243 21.9766L62.096 24.2599L58.2181 34.2324C68.6257 38.9232 71.3441 43.521 67.72 52.8412C66.9951 54.7052 66.2133 56.4398 65.4833 57.7653L52.0623 52.5465L52.8234 50.5893C54.0918 47.3272 53.7966 45.603 50.4414 44.2983C46.8065 42.8849 45.4655 44.402 44.487 46.9185C43.4722 49.5281 43.9279 50.5637 46.4392 52.935C51.2909 57.2894 54.7291 59.4847 57.8824 62.9641C61.4449 66.4952 62.2631 70.4614 58.8926 79.1292C53.9637 91.8046 48.3873 95.1082 36.0744 91.1786L31.5079 102.922Z"/>
</mask>
<path d="M31.5079 102.922L25.6362 100.639L30.1664 88.9886C19.4638 84.5049 15.8288 79.2288 19.2355 70.4679C20.2503 67.8583 21.2133 65.6577 22.4197 63.659L35.7475 68.8416L35.1314 70.426C33.718 74.0609 33.5886 76.0491 37.503 77.5713C41.6039 79.1659 42.7533 77.0378 43.8043 74.335C44.8191 71.7253 44.3997 70.5966 42.168 68.3339C38.1343 64.0831 32.9564 60.5675 29.9066 56.27C26.9137 52.102 27.5297 48.5862 30.6465 40.5709C34.7418 30.0391 39.4898 27.4863 52.3464 31.9492L56.2243 21.9766L62.096 24.2599L58.2181 34.2324C68.6257 38.9232 71.3441 43.521 67.72 52.8412C66.9951 54.7052 66.2133 56.4398 65.4833 57.7653L52.0623 52.5465L52.8234 50.5893C54.0918 47.3272 53.7966 45.603 50.4414 44.2983C46.8065 42.8849 45.4655 44.402 44.487 46.9185C43.4722 49.5281 43.9279 50.5637 46.4392 52.935C51.2909 57.2894 54.7291 59.4847 57.8824 62.9641C61.4449 66.4952 62.2631 70.4614 58.8926 79.1292C53.9637 91.8046 48.3873 95.1082 36.0744 91.1786L31.5079 102.922Z" fill="url(#paint0_linear_2040_217)"/>
<path d="M31.5079 102.922L30.4207 105.718L33.2167 106.805L34.304 104.009L31.5079 102.922ZM25.6362 100.639L22.8402 99.5515L21.7529 102.348L24.549 103.435L25.6362 100.639ZM30.1664 88.9886L32.9625 90.0758L34.022 87.3512L31.3256 86.2216L30.1664 88.9886ZM22.4197 63.659L23.5069 60.8629L21.1552 59.9485L19.8513 62.1087L22.4197 63.659ZM35.7475 68.8416L38.5436 69.9288L39.6308 67.1328L36.8348 66.0455L35.7475 68.8416ZM42.168 68.3339L39.9918 70.3989L40.0117 70.42L40.0321 70.4406L42.168 68.3339ZM29.9066 56.27L32.3531 54.5338L32.3483 54.527L32.3434 54.5202L29.9066 56.27ZM52.3464 31.9492L51.3626 34.7833L54.0945 35.7316L55.1425 33.0365L52.3464 31.9492ZM56.2243 21.9766L57.3116 19.1806L54.5155 18.0933L53.4283 20.8894L56.2243 21.9766ZM62.096 24.2599L64.892 25.3471L65.9793 22.5511L63.1833 21.4638L62.096 24.2599ZM58.2181 34.2324L55.4221 33.1452L54.3905 35.7979L56.9854 36.9675L58.2181 34.2324ZM65.4833 57.7653L64.3961 60.5614L66.844 61.5133L68.1111 59.2126L65.4833 57.7653ZM52.0623 52.5465L49.2662 51.4593L48.179 54.2553L50.975 55.3426L52.0623 52.5465ZM46.4392 52.935L44.3795 55.1163L44.4071 55.1423L44.4354 55.1677L46.4392 52.935ZM57.8824 62.9641L55.6595 64.9787L55.7135 65.0382L55.7705 65.0947L57.8824 62.9641ZM36.0744 91.1786L36.9865 88.3206L34.3003 87.4633L33.2783 90.0913L36.0744 91.1786ZM32.5952 100.126L26.7235 97.8427L24.549 103.435L30.4207 105.718L32.5952 100.126ZM28.4323 101.726L32.9625 90.0758L27.3704 87.9013L22.8402 99.5515L28.4323 101.726ZM31.3256 86.2216C26.1299 84.0449 23.282 81.9115 21.9687 79.766C20.7946 77.8479 20.5408 75.3889 22.0316 71.5552L16.4395 69.3806C14.5235 74.3079 14.3838 78.8673 16.8513 82.8984C19.1795 86.7021 23.5003 89.4486 29.0073 91.7556L31.3256 86.2216ZM22.0316 71.5552C23.0266 68.9963 23.9159 66.9856 24.9881 65.2092L19.8513 62.1087C18.5107 64.3298 17.474 66.7202 16.4395 69.3806L22.0316 71.5552ZM21.3324 66.455L34.6603 71.6376L36.8348 66.0455L23.5069 60.8629L21.3324 66.455ZM32.9515 67.7543L32.3354 69.3387L37.9274 71.5132L38.5436 69.9288L32.9515 67.7543ZM32.3354 69.3387C31.6636 71.0662 30.8702 73.3245 31.4058 75.5062C32.0376 78.0799 34.1371 79.4813 36.4158 80.3673L38.5903 74.7752C36.9545 74.1392 37.1615 73.7853 37.2327 74.0757C37.2367 74.0919 37.1952 73.9407 37.2926 73.4716C37.391 72.9973 37.592 72.3759 37.9274 71.5132L32.3354 69.3387ZM36.4158 80.3673C38.9424 81.3498 41.4549 81.508 43.5503 79.9993C45.3058 78.7353 46.1169 76.6655 46.6004 75.4222L41.0083 73.2477C40.7543 73.9009 40.5529 74.3616 40.3537 74.7073C40.2596 74.8706 40.1831 74.9774 40.1264 75.0453C40.0715 75.1111 40.0431 75.1311 40.0445 75.1301C40.0886 75.0983 40.1175 75.1163 39.995 75.1194C39.8158 75.1238 39.3827 75.0834 38.5903 74.7752L36.4158 80.3673ZM46.6004 75.4222C47.1922 73.9003 47.6155 72.209 47.0861 70.3732C46.6001 68.6876 45.4321 67.3712 44.3038 66.2273L40.0321 70.4406C41.1355 71.5593 41.2931 71.9386 41.321 72.0355C41.324 72.0458 41.3256 72.0539 41.3265 72.0689C41.3276 72.0861 41.3287 72.1306 41.3175 72.2137C41.2929 72.3964 41.217 72.7109 41.0083 73.2477L46.6004 75.4222ZM44.3442 66.269C42.2149 64.025 39.7572 61.9495 37.667 60.0822C35.4954 58.1422 33.665 56.3824 32.3531 54.5338L27.4601 58.0063C29.198 60.4552 31.4814 62.6019 33.6697 64.5567C35.9393 66.5843 38.0874 68.3921 39.9918 70.3989L44.3442 66.269ZM32.3434 54.5202C31.2117 52.9442 30.8628 51.7066 30.978 50.0744C31.1115 48.1818 31.8746 45.6904 33.4426 41.6582L27.8505 39.4837C26.3016 43.4667 25.1983 46.7409 24.9928 49.652C24.769 52.8235 25.6085 55.4278 27.4697 58.0198L32.3434 54.5202ZM33.4426 41.6582C35.4393 36.5232 37.2685 34.292 39.3786 33.4005C41.5782 32.4712 45.0268 32.584 51.3626 34.7833L53.3302 29.1151C46.8094 26.8516 41.4557 26.0093 37.0434 27.8736C32.5415 29.7757 29.949 34.0869 27.8505 39.4837L33.4426 41.6582ZM55.1425 33.0365L59.0203 23.0639L53.4283 20.8894L49.5504 30.862L55.1425 33.0365ZM55.137 24.7727L61.0087 27.0559L63.1833 21.4638L57.3116 19.1806L55.137 24.7727ZM59.3 23.1726L55.4221 33.1452L61.0142 35.3197L64.892 25.3471L59.3 23.1726ZM56.9854 36.9675C62.0968 39.2712 64.5491 41.2475 65.5765 43.1986C66.5051 44.9621 66.6125 47.4113 64.9239 51.7539L70.516 53.9284C72.4516 48.9509 73.0118 44.4411 70.8854 40.403C68.8577 36.5524 64.747 33.8844 59.4508 31.4974L56.9854 36.9675ZM64.9239 51.7539C64.2289 53.5412 63.5012 55.1457 62.8555 56.3181L68.1111 59.2126C68.9255 57.7339 69.7613 55.8692 70.516 53.9284L64.9239 51.7539ZM66.5706 54.9693L53.1495 49.7505L50.975 55.3426L64.3961 60.5614L66.5706 54.9693ZM54.8583 53.6338L55.6194 51.6765L50.0273 49.502L49.2662 51.4593L54.8583 53.6338ZM55.6194 51.6765C56.2759 49.9883 56.9096 47.8489 56.2117 45.7594C55.449 43.4758 53.4844 42.2628 51.5286 41.5023L49.3541 47.0944C50.7536 47.6386 50.6142 47.94 50.5208 47.6602C50.4953 47.5839 50.5419 47.639 50.4928 47.9588C50.4414 48.2939 50.3064 48.7844 50.0273 49.502L55.6194 51.6765ZM51.5286 41.5023C49.3209 40.6438 47.025 40.37 44.9881 41.5251C43.1104 42.59 42.2175 44.4771 41.6909 45.8312L47.283 48.0057C47.4882 47.478 47.6611 47.1411 47.8052 46.9277C47.9402 46.7278 47.9958 46.7171 47.948 46.7443C47.735 46.8651 47.927 46.5394 49.3541 47.0944L51.5286 41.5023ZM41.6909 45.8312C41.1019 47.346 40.654 49.0885 41.3017 50.9855C41.8716 52.6546 43.1587 53.9635 44.3795 55.1163L48.4989 50.7538C47.9011 50.1893 47.5187 49.7901 47.2675 49.4785C47.0236 49.1761 46.9808 49.0495 46.9799 49.0467C46.9795 49.0455 46.9805 49.0484 46.9817 49.0541C46.9829 49.0599 46.9836 49.0647 46.9838 49.0669C46.9843 49.0731 46.9812 49.0509 46.989 48.987C47.007 48.838 47.0725 48.5471 47.283 48.0057L41.6909 45.8312ZM44.4354 55.1677C46.9254 57.4024 49.0782 59.1047 50.8934 60.5958C52.7289 62.1035 54.2366 63.4086 55.6595 64.9787L60.1053 60.9495C58.3749 59.0402 56.5869 57.5079 54.7019 55.9595C52.7969 54.3946 50.8047 52.822 48.443 50.7024L44.4354 55.1677ZM55.7705 65.0947C57.1832 66.4951 57.8502 67.7455 57.9997 69.3918C58.1656 71.219 57.723 73.8593 56.0966 78.0419L61.6887 80.2164C63.4327 75.7313 64.2662 72.0546 63.9751 68.849C63.6675 65.4625 62.1441 62.9643 59.9944 60.8334L55.7705 65.0947ZM56.0966 78.0419C53.6817 84.2521 51.382 87.3596 48.8256 88.7418C46.3665 90.0715 42.8929 90.2056 36.9865 88.3206L35.1623 94.0366C41.5688 96.0812 47.0398 96.5283 51.6794 94.0197C56.2217 91.5637 59.1746 86.6816 61.6887 80.2164L56.0966 78.0419ZM33.2783 90.0913L28.7119 101.835L34.304 104.009L38.8704 92.2659L33.2783 90.0913Z" fill="#141414" mask="url(#path-1-outside-1_2040_217)"/>
<mask id="path-3-outside-2_2040_217" maskUnits="userSpaceOnUse" x="64.8639" y="34.7376" width="79.7828" height="92.0598" fill="black">
<rect fill="white" x="64.8639" y="34.7376" width="79.7828" height="92.0598"/>
<path d="M127.576 123.187L113.379 120.776L120.98 76.0167L120.388 75.9162L101.45 118.75L94.647 117.595L90.8116 70.8937L90.22 70.7932L82.6192 115.552L68.521 113.158L81.1947 38.5268L103.081 42.2435L104.474 75.8511L105.165 75.9683L118.363 44.8385L140.151 48.5385L127.576 123.187Z"/>
</mask>
<path d="M127.576 123.187L113.379 120.776L120.98 76.0167L120.388 75.9162L101.45 118.75L94.647 117.595L90.8116 70.8937L90.22 70.7932L82.6192 115.552L68.521 113.158L81.1947 38.5268L103.081 42.2435L104.474 75.8511L105.165 75.9683L118.363 44.8385L140.151 48.5385L127.576 123.187Z" fill="url(#paint1_linear_2040_217)"/>
<path d="M127.576 123.187L127.073 126.144L130.035 126.647L130.534 123.685L127.576 123.187ZM113.379 120.776L110.421 120.274L109.919 123.231L112.877 123.734L113.379 120.776ZM120.98 76.0167L123.937 76.519L124.44 73.5613L121.482 73.059L120.98 76.0167ZM120.388 75.9162L120.89 72.9586L118.589 72.5677L117.644 74.7031L120.388 75.9162ZM101.45 118.75L100.947 121.708L103.249 122.099L104.193 119.963L101.45 118.75ZM94.647 117.595L91.6571 117.84L91.8478 120.163L94.1447 120.553L94.647 117.595ZM90.8116 70.8937L93.8015 70.6481L93.6108 68.3261L91.3138 67.936L90.8116 70.8937ZM90.22 70.7932L90.7223 67.8355L87.7646 67.3333L87.2624 70.2909L90.22 70.7932ZM82.6192 115.552L82.1169 118.51L85.0746 119.012L85.5768 116.055L82.6192 115.552ZM68.521 113.158L65.5634 112.656L65.0611 115.614L68.0188 116.116L68.521 113.158ZM81.1947 38.5268L81.6969 35.5691L78.7393 35.0668L78.237 38.0245L81.1947 38.5268ZM103.081 42.2435L106.079 42.1192L105.978 39.6925L103.584 39.2858L103.081 42.2435ZM104.474 75.8511L101.477 75.9753L101.578 78.4021L103.972 78.8087L104.474 75.8511ZM105.165 75.9683L104.662 78.9259L107.001 79.323L107.927 77.1393L105.165 75.9683ZM118.363 44.8385L118.865 41.8808L116.526 41.4837L115.601 43.6675L118.363 44.8385ZM140.151 48.5385L143.109 49.0368L143.607 46.0824L140.653 45.5808L140.151 48.5385ZM128.078 120.229L113.881 117.818L112.877 123.734L127.073 126.144L128.078 120.229ZM116.336 121.278L123.937 76.519L118.022 75.5144L110.421 120.274L116.336 121.278ZM121.482 73.059L120.89 72.9586L119.886 78.8739L120.477 78.9744L121.482 73.059ZM117.644 74.7031L98.7058 117.537L104.193 119.963L123.132 77.1294L117.644 74.7031ZM101.952 115.792L95.1492 114.637L94.1447 120.553L100.947 121.708L101.952 115.792ZM97.6369 117.349L93.8015 70.6481L87.8216 71.1392L91.6571 117.84L97.6369 117.349ZM91.3138 67.936L90.7223 67.8355L89.7178 73.7509L90.3093 73.8513L91.3138 67.936ZM87.2624 70.2909L79.6615 115.05L85.5768 116.055L93.1777 71.2955L87.2624 70.2909ZM83.1214 112.595L69.0233 110.201L68.0188 116.116L82.1169 118.51L83.1214 112.595ZM71.4787 113.661L84.1523 39.029L78.237 38.0245L65.5634 112.656L71.4787 113.661ZM80.6924 41.4844L102.579 45.2011L103.584 39.2858L81.6969 35.5691L80.6924 41.4844ZM100.084 42.3677L101.477 75.9753L107.472 75.7268L106.079 42.1192L100.084 42.3677ZM103.972 78.8087L104.662 78.9259L105.667 73.0106L104.977 72.8934L103.972 78.8087ZM107.927 77.1393L121.125 46.0095L115.601 43.6675L102.403 74.7972L107.927 77.1393ZM117.86 47.7961L139.648 51.4961L140.653 45.5808L118.865 41.8808L117.86 47.7961ZM137.192 48.0401L124.617 122.688L130.534 123.685L143.109 49.0368L137.192 48.0401Z" fill="#141414" mask="url(#path-3-outside-2_2040_217)"/>
<mask id="path-5-outside-3_2040_217" maskUnits="userSpaceOnUse" x="148.346" y="44.1106" width="50.8981" height="86.6023" fill="black">
<rect fill="white" x="148.346" y="44.1106" width="50.8981" height="86.6023"/>
<path d="M191.308 119.428C188.872 124.214 184.426 125.868 174.832 126.199C165.137 126.533 160.588 125.189 157.828 120.581C155.071 116.073 153.813 111.514 152.994 87.7281C152.175 63.9422 153.122 59.5069 155.559 54.7202C157.999 50.0334 162.441 48.2794 172.136 47.9454C181.73 47.6149 186.282 49.059 189.039 53.5668C191.799 58.1745 193.05 62.534 193.87 86.3199C194.689 110.106 193.748 114.741 191.308 119.428ZM178.085 107.376C178.616 105.356 178.823 102.648 178.265 86.4572C177.69 69.7671 177.297 67.0791 176.632 65.2009C176.088 63.9188 175.168 63.3502 172.669 63.4363C170.171 63.5223 169.192 64.1564 168.837 65.4694C168.203 67.3924 167.996 70.1011 168.571 86.7912C169.129 102.982 169.522 105.67 170.29 107.644C170.735 108.93 171.751 109.395 174.25 109.309C176.748 109.223 177.63 108.692 178.085 107.376Z"/>
</mask>
<path d="M191.308 119.428C188.872 124.214 184.426 125.868 174.832 126.199C165.137 126.533 160.588 125.189 157.828 120.581C155.071 116.073 153.813 111.514 152.994 87.7281C152.175 63.9422 153.122 59.5069 155.559 54.7202C157.999 50.0334 162.441 48.2794 172.136 47.9454C181.73 47.6149 186.282 49.059 189.039 53.5668C191.799 58.1745 193.05 62.534 193.87 86.3199C194.689 110.106 193.748 114.741 191.308 119.428ZM178.085 107.376C178.616 105.356 178.823 102.648 178.265 86.4572C177.69 69.7671 177.297 67.0791 176.632 65.2009C176.088 63.9188 175.168 63.3502 172.669 63.4363C170.171 63.5223 169.192 64.1564 168.837 65.4694C168.203 67.3924 167.996 70.1011 168.571 86.7912C169.129 102.982 169.522 105.67 170.29 107.644C170.735 108.93 171.751 109.395 174.25 109.309C176.748 109.223 177.63 108.692 178.085 107.376Z" fill="url(#paint2_linear_2040_217)"/>
<path d="M191.308 119.428L188.647 118.042L188.641 118.055L188.635 118.067L191.308 119.428ZM157.828 120.581L160.402 119.039L160.395 119.028L160.387 119.016L157.828 120.581ZM155.559 54.7202L152.898 53.3348L152.892 53.347L152.886 53.3593L155.559 54.7202ZM189.039 53.5668L191.613 52.0251L191.606 52.0133L191.599 52.0016L189.039 53.5668ZM178.085 107.376L180.921 108.356L180.958 108.248L180.987 108.138L178.085 107.376ZM176.632 65.2009L179.46 64.1995L179.43 64.1128L179.394 64.0282L176.632 65.2009ZM168.837 65.4694L171.686 66.409L171.712 66.3313L171.733 66.2524L168.837 65.4694ZM170.29 107.644L173.125 106.664L173.107 106.61L173.086 106.556L170.29 107.644ZM188.635 118.067C187.744 119.816 186.574 120.92 184.633 121.702C182.521 122.552 179.443 123.038 174.728 123.201L174.935 129.197C179.814 129.029 183.756 128.523 186.875 127.267C190.164 125.943 192.435 123.826 193.982 120.789L188.635 118.067ZM174.728 123.201C169.961 123.365 166.831 123.092 164.652 122.388C162.65 121.742 161.409 120.721 160.402 119.039L155.254 122.123C157.007 125.049 159.421 127.004 162.807 128.098C166.016 129.134 170.008 129.367 174.935 129.197L174.728 123.201ZM160.387 119.016C158.111 115.294 156.817 111.564 155.992 87.6248L149.996 87.8314C150.81 111.464 152.031 116.853 155.269 122.146L160.387 119.016ZM155.992 87.6248C155.168 63.7091 156.203 60.0681 158.233 56.0811L152.886 53.3593C150.042 58.9458 149.181 64.1753 149.996 87.8314L155.992 87.6248ZM158.22 56.1056C159.111 54.3944 160.288 53.2785 162.255 52.4804C164.382 51.6172 167.488 51.1074 172.239 50.9437L172.032 44.9472C167.089 45.1175 163.126 45.6517 159.999 46.9206C156.711 48.2547 154.447 50.3592 152.898 53.3348L158.22 56.1056ZM172.239 50.9437C176.938 50.7818 180.045 51.0772 182.213 51.7912C184.219 52.4519 185.472 53.4846 186.48 55.132L191.599 52.0016C189.849 49.1412 187.447 47.198 184.09 46.0923C180.894 45.0399 176.928 44.7786 172.032 44.9472L172.239 50.9437ZM186.466 55.1085C188.765 58.9463 190.048 62.5075 190.872 86.4232L196.868 86.2166C196.053 62.5605 194.834 57.4027 191.613 52.0251L186.466 55.1085ZM190.872 86.4232C191.696 110.362 190.662 114.173 188.647 118.042L193.969 120.813C196.835 115.309 197.682 109.849 196.868 86.2166L190.872 86.4232ZM180.987 108.138C181.658 105.586 181.814 102.329 181.263 86.3539L175.267 86.5605C175.832 102.966 175.575 105.127 175.184 106.613L180.987 108.138ZM181.263 86.3539C180.976 78.0111 180.732 73.0981 180.472 70.0217C180.211 66.9325 179.919 65.4948 179.46 64.1995L173.804 66.2022C174.011 66.7851 174.248 67.6305 174.493 70.5275C174.739 73.4372 174.979 78.2133 175.267 86.5605L181.263 86.3539ZM179.394 64.0282C178.921 62.9139 178.12 61.7882 176.677 61.0986C175.411 60.4935 173.972 60.3896 172.566 60.438L172.773 66.4345C173.287 66.4168 173.632 66.4365 173.858 66.4675C174.08 66.498 174.131 66.5321 174.09 66.5124C174.03 66.4835 173.942 66.4225 173.871 66.3402C173.812 66.2728 173.821 66.2554 173.871 66.3736L179.394 64.0282ZM172.566 60.438C171.162 60.4864 169.72 60.6895 168.495 61.369C167.075 62.156 166.296 63.3752 165.941 64.6864L171.733 66.2524C171.747 66.2019 171.735 66.2739 171.65 66.3887C171.558 66.5139 171.455 66.5883 171.404 66.6165C171.372 66.6343 171.434 66.5927 171.669 66.5444C171.905 66.4959 172.259 66.4522 172.773 66.4345L172.566 60.438ZM165.988 64.5298C165.53 65.9171 165.312 67.4288 165.251 70.5336C165.19 73.6294 165.285 78.5552 165.573 86.8945L171.569 86.6879C171.282 78.3371 171.193 73.5635 171.25 70.6517C171.307 67.7488 171.509 66.9447 171.686 66.409L165.988 64.5298ZM165.573 86.8945C165.851 94.9847 166.091 99.7812 166.363 102.817C166.638 105.875 166.961 107.362 167.494 108.732L173.086 106.556C172.85 105.952 172.593 105.108 172.339 102.281C172.084 99.4308 171.848 94.7881 171.569 86.6879L165.573 86.8945ZM167.455 108.625C167.914 109.954 168.816 111.106 170.319 111.749C171.573 112.286 173.004 112.354 174.353 112.307L174.146 106.311C173.611 106.329 173.237 106.315 172.978 106.285C172.718 106.256 172.646 106.219 172.68 106.233C172.737 106.258 172.868 106.331 172.994 106.474C173.111 106.606 173.139 106.703 173.125 106.664L167.455 108.625ZM174.353 112.307C175.703 112.261 177.112 112.095 178.323 111.463C179.753 110.716 180.51 109.545 180.921 108.356L175.25 106.396C175.212 106.505 175.212 106.463 175.287 106.367C175.376 106.254 175.481 106.178 175.545 106.145C175.586 106.123 175.53 106.162 175.288 106.207C175.045 106.252 174.682 106.292 174.146 106.311L174.353 112.307Z" fill="#141414" mask="url(#path-5-outside-3_2040_217)"/>
<mask id="path-7-outside-4_2040_217" maskUnits="userSpaceOnUse" x="195.694" y="36.3115" width="60.6939" height="92.1369" fill="black">
<rect fill="white" x="195.694" y="36.3115" width="60.6939" height="92.1369"/>
<path d="M240.343 64.5529L227.592 67.085C227.495 66.0847 227.398 65.5942 227.047 63.8287C226.132 59.2187 225.055 57.9033 221.328 58.6434C217.6 59.3835 217.206 60.9912 218.121 65.6011C218.978 69.9169 220.291 70.8796 223.035 71.864C229.602 74.1283 233.701 74.232 238.033 76.0226C242.952 78.2062 245.596 81.2496 248.05 93.6083C251.556 111.264 248.213 117.535 233.206 120.515C220.945 122.949 214.556 120.038 212.238 108.366C211.498 104.639 210.837 100.284 210.958 97.8132L223.807 95.2617C223.767 96.0853 223.942 96.9681 224.157 98.047C225.286 103.736 226.441 105.444 230.364 104.665C234.288 103.886 234.917 102.435 233.671 96.1577C232.911 92.3324 231.54 91.0754 228.522 89.7377C223.073 87.4553 216.601 87.2111 211.859 84.3805C207.137 81.648 205.674 75.8214 203.726 66.0129C200.96 52.0848 203.733 46.5385 218.348 43.6364C231.589 41.007 237.057 43.8974 239.55 56.4522C240.348 60.4737 240.561 62.5724 240.343 64.5529Z"/>
</mask>
<path d="M240.343 64.5529L227.592 67.085C227.495 66.0847 227.398 65.5942 227.047 63.8287C226.132 59.2187 225.055 57.9033 221.328 58.6434C217.6 59.3835 217.206 60.9912 218.121 65.6011C218.978 69.9169 220.291 70.8796 223.035 71.864C229.602 74.1283 233.701 74.232 238.033 76.0226C242.952 78.2062 245.596 81.2496 248.05 93.6083C251.556 111.264 248.213 117.535 233.206 120.515C220.945 122.949 214.556 120.038 212.238 108.366C211.498 104.639 210.837 100.284 210.958 97.8132L223.807 95.2617C223.767 96.0853 223.942 96.9681 224.157 98.047C225.286 103.736 226.441 105.444 230.364 104.665C234.288 103.886 234.917 102.435 233.671 96.1577C232.911 92.3324 231.54 91.0754 228.522 89.7377C223.073 87.4553 216.601 87.2111 211.859 84.3805C207.137 81.648 205.674 75.8214 203.726 66.0129C200.96 52.0848 203.733 46.5385 218.348 43.6364C231.589 41.007 237.057 43.8974 239.55 56.4522C240.348 60.4737 240.561 62.5724 240.343 64.5529Z" fill="url(#paint3_linear_2040_217)"/>
<path d="M240.343 64.5529L240.927 67.4955L243.084 67.0672L243.325 64.8818L240.343 64.5529ZM227.592 67.085L224.606 67.3736L224.925 70.6732L228.176 70.0275L227.592 67.085ZM223.035 71.864L222.023 74.6878L222.04 74.6941L222.057 74.7001L223.035 71.864ZM238.033 76.0226L239.25 73.2805L239.214 73.2649L239.179 73.2501L238.033 76.0226ZM210.958 97.8132L210.374 94.8707L208.077 95.3269L207.962 97.6664L210.958 97.8132ZM223.807 95.2617L226.804 95.4085L226.992 91.5708L223.223 92.3192L223.807 95.2617ZM228.522 89.7377L229.737 86.995L229.709 86.9825L229.681 86.9706L228.522 89.7377ZM211.859 84.3805L213.397 81.8045L213.379 81.7941L213.362 81.7838L211.859 84.3805ZM239.759 61.6104L227.008 64.1424L228.176 70.0275L240.927 67.4955L239.759 61.6104ZM230.578 66.7964C230.465 65.6252 230.337 64.9935 229.99 63.2444L224.105 64.413C224.458 66.195 224.526 66.5442 224.606 67.3736L230.578 66.7964ZM229.99 63.2444C229.749 62.0341 229.472 60.8978 229.097 59.9068C228.722 58.9178 228.183 57.892 227.315 57.0618C225.362 55.1929 222.856 55.2813 220.743 55.7009L221.912 61.5859C223.527 61.2653 223.423 61.6414 223.168 61.3977C223.15 61.3801 223.285 61.5013 223.486 62.0324C223.686 62.5614 223.887 63.3183 224.105 64.413L229.99 63.2444ZM220.743 55.7009C218.636 56.1194 216.274 56.996 215.218 59.5085C214.755 60.6089 214.672 61.758 214.715 62.7972C214.758 63.8417 214.941 64.9865 215.179 66.1855L221.064 65.0168C220.844 63.9108 220.733 63.1259 220.71 62.5493C220.685 61.9674 220.762 61.804 220.749 61.8337C220.703 61.9433 220.613 62.0006 220.665 61.9696C220.791 61.8942 221.135 61.7403 221.912 61.5859L220.743 55.7009ZM215.179 66.1855C215.643 68.5228 216.315 70.4513 217.598 71.9402C218.909 73.4615 220.553 74.1608 222.023 74.6878L224.048 69.0401C222.773 68.5828 222.389 68.3085 222.143 68.0234C221.87 67.706 221.457 66.9952 221.064 65.0168L215.179 66.1855ZM222.057 74.7001C225.515 75.8924 228.327 76.5151 230.719 77.0489C233.137 77.5888 234.997 78.0138 236.887 78.795L239.179 73.2501C236.737 72.2408 234.381 71.7187 232.026 71.193C229.643 70.6612 227.122 70.0999 224.013 69.0278L222.057 74.7001ZM236.816 78.7646C238.893 79.6869 240.23 80.6487 241.409 82.569C242.702 84.6754 243.895 88.0907 245.107 94.1926L250.992 93.024C249.75 86.7672 248.395 82.4815 246.523 79.4306C244.536 76.1935 242.091 74.5418 239.25 73.2805L236.816 78.7646ZM245.107 94.1926C246.855 102.996 246.65 108.003 244.94 111.123C243.339 114.042 239.93 116.121 232.622 117.572L233.79 123.457C241.49 121.928 247.255 119.381 250.201 114.007C253.037 108.833 252.75 101.876 250.992 93.024L245.107 94.1926ZM232.622 117.572C226.679 118.752 222.905 118.459 220.44 117.102C218.126 115.828 216.257 113.202 215.181 107.782L209.296 108.95C210.537 115.203 213.022 119.868 217.547 122.359C221.922 124.767 227.472 124.712 233.79 123.457L232.622 117.572ZM215.181 107.782C214.435 104.024 213.854 100.012 213.955 97.96L207.962 97.6664C207.82 100.556 208.562 105.254 209.296 108.95L215.181 107.782ZM211.543 100.756L224.392 98.2043L223.223 92.3192L210.374 94.8707L211.543 100.756ZM220.811 95.1149C220.749 96.3824 221.021 97.6576 221.214 98.6314L227.099 97.4627C226.864 96.2786 226.785 95.7883 226.804 95.4085L220.811 95.1149ZM221.214 98.6314C221.506 100.099 221.821 101.43 222.217 102.573C222.608 103.702 223.14 104.835 223.966 105.769C224.853 106.772 225.975 107.426 227.294 107.698C228.521 107.95 229.772 107.841 230.949 107.607L229.78 101.722C228.995 101.878 228.631 101.847 228.503 101.821C228.466 101.813 228.493 101.832 228.46 101.794C228.365 101.687 228.152 101.375 227.886 100.609C227.625 99.855 227.373 98.8395 227.099 97.4627L221.214 98.6314ZM230.949 107.607C233.044 107.191 235.642 106.37 236.746 103.576C237.219 102.381 237.293 101.095 237.228 99.8659C237.161 98.6196 236.934 97.1861 236.613 95.5734L230.728 96.7421C231.031 98.268 231.193 99.37 231.236 100.185C231.281 101.018 231.186 101.321 231.166 101.37C231.164 101.375 231.18 101.34 231.217 101.298C231.251 101.259 231.263 101.262 231.204 101.296C231.043 101.39 230.654 101.549 229.78 101.722L230.949 107.607ZM236.613 95.5734C236.183 93.404 235.506 91.5755 234.23 90.0728C232.97 88.5897 231.37 87.7184 229.737 86.995L227.306 92.4804C228.692 93.0947 229.286 93.5208 229.657 93.9569C230.011 94.3735 230.4 95.0862 230.728 96.7421L236.613 95.5734ZM229.681 86.9706C226.676 85.7121 223.389 85.0166 220.631 84.3489C217.73 83.6463 215.335 82.9613 213.397 81.8045L210.322 86.9565C213.126 88.6303 216.338 89.4826 219.219 90.1804C222.245 90.9131 224.918 91.4809 227.363 92.5047L229.681 86.9706ZM213.362 81.7838C211.777 80.8672 210.588 79.3854 209.541 76.7441C208.458 74.0157 207.651 70.3773 206.668 65.4286L200.783 66.5972C201.748 71.4569 202.646 75.6361 203.963 78.9563C205.315 82.3636 207.218 85.1614 210.357 86.9772L213.362 81.7838ZM206.668 65.4286C205.295 58.5122 205.557 54.6977 207.065 52.2762C208.535 49.9169 211.757 48.0037 218.932 46.579L217.763 40.6939C210.323 42.1713 204.852 44.4823 201.973 49.1037C199.133 53.6629 199.391 59.5855 200.783 66.5972L206.668 65.4286ZM218.932 46.579C225.455 45.2836 229.149 45.576 231.457 46.9353C233.649 48.2259 235.406 50.9868 236.607 57.0366L242.492 55.8679C241.201 49.3628 238.978 44.4011 234.502 41.7652C230.142 39.1979 224.482 39.3598 217.763 40.6939L218.932 46.579ZM236.607 57.0366C237.398 61.0157 237.526 62.7304 237.361 64.224L243.325 64.8818C243.597 62.4145 243.299 59.9317 242.492 55.8679L236.607 57.0366Z" fill="#141414" mask="url(#path-7-outside-4_2040_217)"/>
<mask id="path-9-outside-5_2040_217" maskUnits="userSpaceOnUse" x="241.192" y="20.1443" width="76.8657" height="94.7885" fill="black">
<rect fill="white" x="241.192" y="20.1443" width="76.8657" height="94.7885"/>
<path d="M313.999 95.1015L297.18 101.514L276.191 73.1286L275.256 73.4849C276.049 75.0021 276.761 76.8709 277.438 78.6462L287.555 105.183L272.512 110.918L245.544 40.1847L260.588 34.4493L270.42 60.2386C270.99 61.7337 271.324 62.8906 271.694 64.1409L272.628 63.7847L270.773 30.5663L286.191 24.6884L286.369 25.1556L287.664 60.8349L313.821 94.6343L313.999 95.1015Z"/>
</mask>
<path d="M313.999 95.1015L297.18 101.514L276.191 73.1286L275.256 73.4849C276.049 75.0021 276.761 76.8709 277.438 78.6462L287.555 105.183L272.512 110.918L245.544 40.1847L260.588 34.4493L270.42 60.2386C270.99 61.7337 271.324 62.8906 271.694 64.1409L272.628 63.7847L270.773 30.5663L286.191 24.6884L286.369 25.1556L287.664 60.8349L313.821 94.6343L313.999 95.1015Z" fill="url(#paint4_linear_2040_217)"/>
<path d="M313.999 95.1015L315.067 97.9047L317.871 96.836L316.802 94.0328L313.999 95.1015ZM297.18 101.514L294.767 103.297L296.121 105.128L298.248 104.317L297.18 101.514ZM276.191 73.1286L278.603 71.345L277.249 69.5144L275.122 70.3254L276.191 73.1286ZM275.256 73.4849L274.188 70.6817L271.035 71.8835L272.597 74.8738L275.256 73.4849ZM287.555 105.183L288.624 107.986L291.427 106.918L290.358 104.114L287.555 105.183ZM272.512 110.918L269.708 111.987L270.777 114.79L273.58 113.722L272.512 110.918ZM245.544 40.1847L244.476 37.3816L241.672 38.4503L242.741 41.2535L245.544 40.1847ZM260.588 34.4493L263.391 33.3806L262.323 30.5774L259.519 31.6461L260.588 34.4493ZM271.694 64.1409L268.817 64.9915L269.736 68.0982L272.763 66.9441L271.694 64.1409ZM272.628 63.7847L273.697 66.5878L275.746 65.8067L275.624 63.6174L272.628 63.7847ZM270.773 30.5663L269.704 27.7631L267.655 28.5443L267.778 30.7336L270.773 30.5663ZM286.191 24.6884L288.994 23.6197L287.925 20.8165L285.122 21.8852L286.191 24.6884ZM286.369 25.1556L289.367 25.0468L289.349 24.5507L289.172 24.0869L286.369 25.1556ZM287.664 60.8349L284.666 60.9437L284.701 61.9079L285.291 62.671L287.664 60.8349ZM313.821 94.6343L316.624 93.5656L316.465 93.15L316.193 92.7983L313.821 94.6343ZM312.93 92.2983L296.111 98.7106L298.248 104.317L315.067 97.9047L312.93 92.2983ZM299.592 99.7302L278.603 71.345L273.779 74.9123L294.767 103.297L299.592 99.7302ZM275.122 70.3254L274.188 70.6817L276.325 76.288L277.259 75.9318L275.122 70.3254ZM272.597 74.8738C273.292 76.2042 273.941 77.8951 274.635 79.7149L280.241 77.5775C279.581 75.8466 278.806 73.8 277.915 72.0959L272.597 74.8738ZM274.635 79.7149L284.752 106.252L290.358 104.114L280.241 77.5775L274.635 79.7149ZM286.487 102.38L271.443 108.115L273.58 113.722L288.624 107.986L286.487 102.38ZM275.315 109.85L248.347 39.116L242.741 41.2535L269.708 111.987L275.315 109.85ZM246.613 42.9879L261.657 37.2525L259.519 31.6461L244.476 37.3816L246.613 42.9879ZM257.785 35.518L267.617 61.3073L273.223 59.1699L263.391 33.3806L257.785 35.518ZM267.617 61.3073C268.14 62.6788 268.444 63.7286 268.817 64.9915L274.571 63.2903C274.205 62.0525 273.841 60.7885 273.223 59.1699L267.617 61.3073ZM272.763 66.9441L273.697 66.5878L271.56 60.9815L270.625 61.3377L272.763 66.9441ZM275.624 63.6174L273.768 30.399L267.778 30.7336L269.633 63.952L275.624 63.6174ZM271.842 33.3695L287.259 27.4916L285.122 21.8852L269.704 27.7631L271.842 33.3695ZM283.387 25.7571L283.565 26.2243L289.172 24.0869L288.994 23.6197L283.387 25.7571ZM283.371 25.2644L284.666 60.9437L290.662 60.7261L289.367 25.0468L283.371 25.2644ZM285.291 62.671L311.448 96.4704L316.193 92.7983L290.036 58.9988L285.291 62.671ZM311.017 95.703L311.195 96.1702L316.802 94.0328L316.624 93.5656L311.017 95.703Z" fill="#141414" mask="url(#path-9-outside-5_2040_217)"/>
<defs>
<linearGradient id="paint0_linear_2040_217" x1="36.5738" y1="-2.72432" x2="109.27" y2="29.3571" gradientUnits="userSpaceOnUse">
<stop stop-color="#E0B5FC"/>
<stop offset="0.49" stop-color="#FFFF7D"/>
<stop offset="0.89" stop-color="#FF4C9D"/>
</linearGradient>
<linearGradient id="paint1_linear_2040_217" x1="70.4294" y1="16.108" x2="182.902" y2="42.8386" gradientUnits="userSpaceOnUse">
<stop stop-color="#E0B5FC"/>
<stop offset="0.49" stop-color="#FFFF7D"/>
<stop offset="0.89" stop-color="#FF4C9D"/>
</linearGradient>
<linearGradient id="paint2_linear_2040_217" x1="141.133" y1="30.0023" x2="220.589" y2="30.8212" gradientUnits="userSpaceOnUse">
<stop stop-color="#E0B5FC"/>
<stop offset="0.49" stop-color="#FFFF7D"/>
<stop offset="0.89" stop-color="#FF4C9D"/>
</linearGradient>
<linearGradient id="paint3_linear_2040_217" x1="187.674" y1="30.3566" x2="259.364" y2="19.1422" gradientUnits="userSpaceOnUse">
<stop stop-color="#E0B5FC"/>
<stop offset="0.49" stop-color="#FFFF7D"/>
<stop offset="0.89" stop-color="#FF4C9D"/>
</linearGradient>
<linearGradient id="paint4_linear_2040_217" x1="227.505" y1="25.337" x2="307.93" y2="-1.01024" gradientUnits="userSpaceOnUse">
<stop stop-color="#E0B5FC"/>
<stop offset="0.49" stop-color="#FFFF7D"/>
<stop offset="0.89" stop-color="#FF4C9D"/>
</linearGradient>
</defs>
</svg>
